<svg width="82" height="42" viewBox="0 0 82 42" fill="none" xmlns="http://www.w3.org/2000/svg">
<path fill-rule="evenodd" clip-rule="evenodd" d="M75.4344 9.46011C74.5592 9.46011 73.7299 9.66017 72.9897 10.0168C72.8052 7.06636 70.3475 4.72228 67.3514 4.72228C66.4746 4.72228 65.6439 4.92298 64.9027 5.28094C64.6923 2.35556 62.2465 0.0391541 59.2685 0.0391541C56.1528 0.0391541 53.618 2.57396 53.618 5.68975V15.0561C53.618 15.9447 54.3384 16.6652 55.2271 16.6652C56.1157 16.6652 56.8361 15.9447 56.8361 15.0561V5.68975C56.8361 4.34844 57.9273 3.25728 59.2685 3.25728C60.6098 3.25728 61.701 4.34844 61.701 5.68975V31.4627V36.1459C61.701 37.4872 60.6098 38.5783 59.2685 38.5783C57.9273 38.5783 56.8361 37.4872 56.8361 36.1459V26.7795C56.8361 25.8909 56.1157 25.1705 55.2271 25.1705H33.5248C32.6361 25.1705 31.9157 25.8909 31.9157 26.7795C31.9157 27.6681 32.6361 28.3886 33.5248 28.3886H53.618V36.1459C53.618 39.2617 56.1528 41.7965 59.2685 41.7965C62.2466 41.7965 64.6924 39.4801 64.9027 36.5547C65.6439 36.9126 66.4746 37.1133 67.3514 37.1133C70.3475 37.1133 72.8052 34.769 72.9897 31.8188C73.7299 32.1755 74.5592 32.3755 75.4344 32.3755C78.5501 32.3755 81.085 29.8407 81.085 26.725V15.1105C81.085 11.9948 78.5501 9.46011 75.4344 9.46011ZM69.784 31.4627C69.784 32.8041 68.6929 33.8952 67.3516 33.8952C66.0102 33.8952 64.9191 32.8041 64.9191 31.4627V10.3729C64.9191 9.03156 66.0102 7.9404 67.3516 7.9404C68.6929 7.9404 69.784 9.03156 69.784 10.3729V31.4627ZM75.4344 29.1574C76.7756 29.1574 77.8669 28.0662 77.8669 26.725V15.1105C77.8669 13.7694 76.7756 12.6782 75.4344 12.6782C74.0932 12.6782 73.002 13.7694 73.002 15.1105V26.725C73.002 28.0662 74.0932 29.1574 75.4344 29.1574Z" fill="#EE4D64"/>
<path fill-rule="evenodd" clip-rule="evenodd" d="M27.2251 25.1705C26.3365 25.1705 25.616 25.8909 25.616 26.7795V36.1459C25.616 37.4872 24.5249 38.5783 23.1836 38.5783C21.8423 38.5783 20.7511 37.4872 20.7511 36.1459V31.4627V10.3729V5.68975C20.7511 4.34844 21.8423 3.25728 23.1836 3.25728C24.5249 3.25728 25.616 4.34844 25.616 5.68975V15.0561C25.616 15.9447 26.3365 16.6652 27.2251 16.6652H48.9275C49.8161 16.6652 50.5366 15.9447 50.5366 15.0561C50.5366 14.1675 49.8161 13.447 48.9275 13.447H28.8342V5.68975C28.8342 2.57396 26.2994 0.0391541 23.1836 0.0391541C20.2054 0.0391541 17.7597 2.35556 17.5494 5.28094C16.8081 4.92298 15.9773 4.72228 15.1005 4.72228C12.1044 4.72228 9.64675 7.06657 9.46224 10.0168C8.72207 9.66017 7.89276 9.46011 7.01754 9.46011C3.90175 9.46011 1.36694 11.9949 1.36694 15.1107V26.725C1.36694 29.8407 3.90175 32.3754 7.01754 32.3754C7.89276 32.3754 8.72207 32.1753 9.46224 31.8187C9.64675 34.7692 12.1044 37.1132 15.1005 37.1132C15.9773 37.1132 16.808 36.9125 17.5494 36.5546C17.7597 39.4799 20.2054 41.7964 23.1836 41.7964C26.2994 41.7964 28.8342 39.2616 28.8342 36.1458V26.7794C28.8342 25.8908 28.1138 25.1705 27.2251 25.1705ZM7.01776 29.1574C5.67655 29.1574 4.58528 28.0662 4.58528 26.7251V15.1107C4.58528 13.7694 5.67644 12.6782 7.01776 12.6782C8.35896 12.6782 9.45012 13.7694 9.45012 15.1107V26.725C9.45001 28.0662 8.35886 29.1574 7.01776 29.1574ZM12.6681 31.4627C12.6681 32.8041 13.7594 33.8952 15.1006 33.8952C16.4419 33.8952 17.5331 32.8041 17.5331 31.4627V10.3729C17.5331 9.03156 16.4419 7.9404 15.1006 7.9404C13.7593 7.9404 12.6681 9.03156 12.6681 10.3729V31.4627Z" fill="#EE4D64"/>
<path d="M25.6115 21.0118V21.5512C25.6115 22.4399 26.3319 23.1603 27.2205 23.1603C28.1091 23.1603 28.8296 22.4399 28.8296 21.5512V21.0118C28.8296 20.1231 28.1091 19.4027 27.2205 19.4027C26.3319 19.4027 25.6115 20.1231 25.6115 21.0118Z" fill="#EE4D64"/>
<path d="M56.8362 20.8329V20.2934C56.8362 19.4048 56.1157 18.6843 55.2272 18.6843C54.3384 18.6843 53.6181 19.4048 53.6181 20.2934V20.8329C53.6181 21.7215 54.3384 22.4419 55.2272 22.4419C56.1158 22.4419 56.8362 21.7215 56.8362 20.8329Z" fill="#EE4D64"/>
</svg>
